<?xml version="1.0" standalone="no"?>
<!DOCTYPE svg PUBLIC "-//W3C//DTD SVG 20010904//EN"
 "http://www.w3.org/TR/2001/REC-SVG-20010904/DTD/svg10.dtd">
<svg version="1.0" xmlns="http://www.w3.org/2000/svg"
 width="700.000000pt" height="700.000000pt" viewBox="0 0 700.000000 700.000000"
 preserveAspectRatio="xMidYMid meet">
<metadata>
Created by potrace 1.11, written by Peter Selinger 2001-2013
</metadata>
<g transform="translate(0.000000,700.000000) scale(0.100000,-0.100000)"
fill="#000000" stroke="none">
<path d="M5115 3805 c-220 -40 -387 -126 -522 -268 -158 -166 -225 -343 -225
-594 0 -261 72 -455 232 -626 136 -146 270 -227 665 -402 286 -127 378 -177
439 -239 150 -150 108 -388 -84 -486 -101 -51 -297 -70 -435 -41 -81 17 -207
79 -280 138 -50 40 -187 204 -198 237 -2 6 -493 -269 -535 -300 -8 -6 53 -109
107 -180 187 -249 457 -409 794 -471 117 -22 448 -25 552 -5 431 83 693 292
796 638 30 100 38 346 15 468 -35 184 -104 316 -235 446 -47 47 -129 114 -181
149 -97 65 -357 196 -535 271 -55 23 -153 69 -218 103 -94 48 -129 72 -172
119 -62 67 -78 110 -78 208 1 115 49 192 151 242 63 31 73 33 172 32 96 0 111
-3 170 -31 84 -40 138 -87 195 -174 l47 -70 27 17 c14 10 127 83 251 162 124
80 227 146 228 148 8 6 -87 143 -146 211 -140 163 -339 267 -579 302 -96 15
-331 12 -418 -4z"/>
<path d="M3150 2623 c-1 -1245 0 -1236 -49 -1337 -25 -50 -62 -86 -125 -118
-64 -33 -231 -38 -308 -9 -94 36 -170 111 -252 248 -21 35 -40 63 -43 63 -4 0
-436 -259 -510 -306 l-23 -14 32 -58 c40 -72 105 -164 158 -225 52 -58 184
-159 262 -198 283 -143 695 -159 991 -38 241 98 414 297 482 556 43 163 45
202 45 1431 l0 1172 -330 0 -330 0 0 -1167z"/>
</g>
</svg>
